<svg xmlns="http://www.w3.org/2000/svg" version="1.1" width="146" height="30"><polyline points=" 0,8.901397748206968 0.9668874172185431,8.910140467686297 1.9337748344370862,8.611018973372119 2.9006622516556293,10.522363485726657 3.8675496688741724,14.175690233289012 4.8344370860927155,18.11199238005659 5.801324503311259,18.27741405287486 6.768211920529802,19.3111949689856 7.735099337748345,18.801411418057896 8.701986754966889,20.849460966176824 9.668874172185431,22.234360807017794 10.635761589403973,18.670434942198963 11.602649006622517,20.90051818850796 12.569536423841061,23.61937237425662 13.536423841059603,24.545752840537034 14.503311258278146,27.997477466335944 15.47019867549669,30 16.437086092715234,25.876044446940018 17.403973509933778,26.10402860365318 18.370860927152318,23.710362806305906 19.337748344370862,25.770227449855653 20.304635761589406,23.91536510487231 21.271523178807946,17.920541749701236 22.23841059602649,21.660530002780526 23.205298013245034,21.019463014706933 24.17218543046358,20.037510264015836 25.139072847682122,19.138960426778866 26.105960264900663,21.415185936081485 27.072847682119207,19.41054508899519 28.03973509933775,18.476703724091156 29.00662251655629,16.97032271700917 29.973509933774835,17.58023699258586 30.94039735099338,16.728021458250026 31.907284768211923,14.516323031714567 32.87417218543047,16.33458072740917 33.84105960264901,14.867451658002999 34.807947019867555,16.347759564661903 35.77483443708609,17.497987442275544 36.741721854304636,17.67405807904632 37.70860927152318,18.84099883978108 38.675496688741724,19.372198859315905 39.64238410596027,18.034108795618423 40.60927152317881,16.407738467239547 41.576158940397356,16.846273745044954 42.54304635761589,18.870048359752452 43.50993377483444,20.494743174196245 44.47682119205298,23.537763485086426 45.443708609271525,24.248030891587174 46.41059602649007,25.241756711353368 47.37748344370861,25.881690189714682 48.34437086092716,25.25931344364218 49.3112582781457,26.123625858695732 50.278145695364245,26.37497810691227 51.24503311258278,25.88346685804455 52.211920529801326,27.072718692502157 53.17880794701987,27.88249270059231 54.145695364238414,27.75519225367009 55.11258278145696,26.548236867215063 56.0794701986755,25.030418959252344 57.046357615894046,22.771234814334374 58.01324503311258,24.008998848535043 58.980132450331126,23.656375130142813 59.94701986754967,23.265831023024447 60.913907284768214,26.965436846066844 61.88079470198676,24.702749319390197 62.8476821192053,23.93155941343236 63.814569536423846,23.519864574042458 64.78145695364239,23.234275569936333 65.74834437086093,13.613156978340161 66.71523178807948,10.483140854168777 67.68211920529802,10.137575527811592 68.64900662251657,7.464554199700572 69.61589403973511,6.954168040920937 70.58278145695364,7.585484309584228 71.54966887417218,9.34226758933406 72.51655629139073,9.096080997609274 73.48344370860927,9.266034908897616 74.45033112582782,11.204609447513551 75.41721854304636,10.847409376535872 76.3841059602649,9.843188206282186 77.35099337748345,9.966564584063633 78.31788079470199,10.776435146435997 79.28476821192054,11.579245508124782 80.25165562913908,10.648530473929657 81.21854304635762,10.785446895761591 82.18543046357617,10.888683847582307 83.15231788079471,12.789631586108978 84.11920529801326,11.519973993409469 85.08609271523179,18.200869889851006 86.05298013245033,18.584186948797146 87.01986754966887,16.896358915254027 87.98675496688742,17.170361677907827 88.95364238410596,16.261513759265394 89.9205298013245,15.547705833305878 90.88741721854305,16.56155670123458 91.8543046357616,15.828881685069394 92.82119205298014,16.876740729641032 93.78807947019868,15.095977593136814 94.75496688741723,12.763758413993159 95.72185430463577,11.45895866586089 96.68874172185431,12.010135505286573 97.65562913907286,13.396859962479752 98.6225165562914,12.234858702499693 99.58940397350995,11.635057110489868 100.55629139072849,6.767629428972551 101.52317880794702,8.475607451193714 102.49006622516556,10.182032487110654 103.45695364238411,9.82143538979857 104.42384105960265,11.469545174238814 105.3907284768212,9.862901981930946 106.35761589403974,7.6846138394096215 107.32450331125828,4.550488985458145 108.29139072847683,5.59022303293855 109.25827814569537,4.700743646439427 110.22516556291392,5.0452737098641585 111.19205298013246,5.482687312291596 112.158940397351,6.285046276433594 113.12582781456955,6.289479444239593 114.09271523178809,6.632505189836525 115.05960264900664,6.466587966537574 116.02649006622516,6.984834710441625 116.99337748344371,6.563014793938326 117.96026490066225,6.2692549153943204 118.9271523178808,5.553955307498633 119.89403973509934,4.337482420491597 120.86092715231788,5.920255291800636 121.82781456953643,5.764099545882072 122.79470198675497,5.826992583413112 123.76158940397352,4.781964863741571 124.72847682119206,2.8691468811500016 125.6953642384106,1.7824417873766478 126.66225165562915,1.8625243240337568 127.62913907284769,3.0868903627855637 128.59602649006624,1.8124368602430572 129.56291390728478,1.4412403170515624 130.52980132450332,0.7355086427687141 131.49668874172187,0.03783424261478885 132.4635761589404,0.1464752908903435 133.43046357615896,0.6626422515662647 134.3973509933775,0 135.36423841059604,0.9818605408482988 136.3311258278146,0.3904074290554398 137.29801324503313,1.3127994830254757 138.26490066225168,2.4451677296384986 139.23178807947022,2.11261775962857 140.19867549668874,2.8708285986419533 141.16556291390728,2.291259344926516 142.13245033112582,1.6453568029234198 143.09933774834437,2.2731675810466534 144.0662251655629,2.5100121078384703 145.03311258278146,2.636596333803066" stroke="#1bc4ad" stroke-linecap="round" stroke-width="1.4" fill="none"></polyline></svg>