<svg xmlns="http://www.w3.org/2000/svg" width="25" height="29" viewBox="0 0 25 29" fill="none">
<path d="M7.78603 6.46916H17.2091L18.3456 11.2731H6.69463L7.78603 6.46916Z" fill="white"/>
<path d="M14.5686 14.6805L15.574 11.9992H9.47461L10.5016 14.6805L10.1879 17.6904H12.5146L14.8607 17.6775L14.5686 14.6805Z" fill="white"/>
<path d="M18.367 12.8973L15.6084 14.6934V17.8838L13.4986 19.9076V20.8594L15.531 22.7307H17.2305L21.5144 15.267L18.367 12.8973Z" fill="white"/>
<path d="M9.46388 14.6934L6.67091 12.9188L3.51271 15.267L7.81818 22.7522H9.53908L11.5715 20.8594V19.9076L9.46388 17.8838V14.6934Z" fill="white"/>
<path fill-rule="evenodd" clip-rule="evenodd" d="M0.0322266 7.26406L12.5039 0.0625L25.0078 7.28125V21.7166L12.5061 28.9375L12.4738 28.9203L0 21.7188V7.28125L0.0322266 7.26406ZM12.5039 1.53633L1.27832 8.02031V20.984L12.5039 27.4658L23.7316 20.984V8.02031L12.5039 1.53633Z" fill="white"/>
</svg>