<svg width="18" height="18" viewBox="0 0 18 18" fill="none" xmlns="http://www.w3.org/2000/svg">
<path fill-rule="evenodd" clip-rule="evenodd" d="M2.01245 9.00001C2.01245 8.18377 2.14523 7.39854 2.39038 6.66475H4.77168C4.61125 7.41591 4.52735 8.19723 4.52735 9.00001C4.52735 9.79985 4.61431 10.5813 4.78026 11.3353H2.39038C2.14523 10.6015 2.01245 9.81625 2.01245 9.00001ZM2.84933 12.4131C3.73346 14.1007 5.2528 15.4031 7.08981 16.0029C6.20212 14.9478 5.5151 13.7331 5.0769 12.4131H2.84933ZM6.21964 12.4131C6.77066 13.8879 7.67168 15.2061 8.8386 16.2704V12.4131H6.21964ZM9.91642 12.4131V16.2761C11.0951 15.2399 12.0046 13.9189 12.5546 12.4131H9.91642ZM12.8784 11.3353H9.91642V6.66475H12.8681C13.0527 7.41538 13.1499 8.19753 13.1499 9.00001C13.1499 9.80729 13.0562 10.5892 12.8784 11.3353ZM13.6944 12.4131C13.2638 13.7407 12.585 14.9512 11.7042 15.99C13.5237 15.3846 15.0278 14.0887 15.9057 12.4131H13.6944ZM16.3646 11.3353H13.9833C14.1438 10.5841 14.2277 9.80279 14.2277 9.00001C14.2277 8.20017 14.1407 7.41875 13.9748 6.66475H16.3646C16.6098 7.39854 16.7426 8.18377 16.7426 9.00001C16.7426 9.81625 16.6098 10.6015 16.3646 11.3353ZM8.8386 11.3353H5.88695C5.70232 10.5846 5.60517 9.80249 5.60517 9.00001C5.60517 8.19273 5.69878 7.41085 5.87658 6.66475H8.8386V11.3353ZM5.06059 5.58693H2.84933C3.7272 3.91129 5.23129 2.61538 7.0508 2.01002C6.17002 3.04883 5.49119 4.25933 5.06059 5.58693ZM6.20042 5.58693H8.8386V1.72393C7.65994 2.76015 6.75038 4.08108 6.20042 5.58693ZM9.91642 5.58693H12.5354C11.9844 4.11213 11.0833 2.79387 9.91642 1.72964V5.58693ZM13.6781 5.58693H15.9057C15.0216 3.89933 13.5022 2.59689 11.6652 1.99716C12.5529 3.05218 13.2399 4.26688 13.6781 5.58693ZM9.37751 17.4429C14.0404 17.4429 17.8204 13.6629 17.8204 9.00001C17.8204 4.33714 14.0404 0.557138 9.37751 0.557138C4.71464 0.557138 0.93464 4.33714 0.93464 9.00001C0.93464 13.6629 4.71464 17.4429 9.37751 17.4429Z" fill="white"/>
</svg>
