<svg width="17" height="16" viewBox="0 0 17 16" fill="none" xmlns="http://www.w3.org/2000/svg">
<path fill-rule="evenodd" clip-rule="evenodd" d="M7.03455 3.15918C7.03455 2.88304 7.2584 2.65918 7.53455 2.65918H8.75194C9.02808 2.65918 9.25194 2.88304 9.25194 3.15918C9.25194 3.43532 9.02808 3.65918 8.75194 3.65918H7.53455C7.2584 3.65918 7.03455 3.43532 7.03455 3.15918Z" fill="white"/>
<path fill-rule="evenodd" clip-rule="evenodd" d="M7.03455 4.98535C7.03455 4.70921 7.2584 4.48535 7.53455 4.48535H8.75194C9.02808 4.48535 9.25194 4.70921 9.25194 4.98535C9.25194 5.26149 9.02808 5.48535 8.75194 5.48535H7.53455C7.2584 5.48535 7.03455 5.26149 7.03455 4.98535Z" fill="white"/>
<path fill-rule="evenodd" clip-rule="evenodd" d="M7.53455 0.833496C7.81069 0.833496 8.03455 1.05735 8.03455 1.3335V3.09871C8.03455 3.37486 7.81069 3.59871 7.53455 3.59871C7.2584 3.59871 7.03455 3.37486 7.03455 3.09871V1.3335C7.03455 1.05735 7.2584 0.833496 7.53455 0.833496Z" fill="white"/>
<path fill-rule="evenodd" clip-rule="evenodd" d="M0.947632 7.42041C0.947632 7.14427 1.17149 6.92041 1.44763 6.92041H2.66502C2.94117 6.92041 3.16502 7.14427 3.16502 7.42041C3.16502 7.69655 2.94117 7.92041 2.66502 7.92041H1.44763C1.17149 7.92041 0.947632 7.69655 0.947632 7.42041Z" fill="white"/>
<path fill-rule="evenodd" clip-rule="evenodd" d="M3.99109 8.02881C3.99109 7.75267 4.21495 7.52881 4.49109 7.52881H8.14326C8.41941 7.52881 8.64326 7.75267 8.64326 8.02881C8.64326 8.30495 8.41941 8.52881 8.14326 8.52881H4.49109C4.21495 8.52881 3.99109 8.30495 3.99109 8.02881Z" fill="white"/>
<path fill-rule="evenodd" clip-rule="evenodd" d="M7.03455 14.7246C7.03455 14.4485 7.2584 14.2246 7.53455 14.2246H8.75194C9.02808 14.2246 9.25194 14.4485 9.25194 14.7246C9.25194 15.0008 9.02808 15.2246 8.75194 15.2246H7.53455C7.2584 15.2246 7.03455 15.0008 7.03455 14.7246Z" fill="white"/>
<path fill-rule="evenodd" clip-rule="evenodd" d="M8.14319 7.71143C8.41933 7.71143 8.64319 7.93528 8.64319 8.21143V9.8549C8.64319 10.131 8.41933 10.3549 8.14319 10.3549C7.86705 10.3549 7.64319 10.131 7.64319 9.8549V8.21143C7.64319 7.93528 7.86705 7.71143 8.14319 7.71143Z" fill="white"/>
<path fill-rule="evenodd" clip-rule="evenodd" d="M9.96936 9.96387C10.2455 9.96387 10.4694 10.1877 10.4694 10.4639V12.29C10.4694 12.5661 10.2455 12.79 9.96936 12.79C9.69322 12.79 9.46936 12.5661 9.46936 12.29V10.4639C9.46936 10.1877 9.69322 9.96387 9.96936 9.96387Z" fill="white"/>
<path fill-rule="evenodd" clip-rule="evenodd" d="M14.8389 12.3984C15.115 12.3984 15.3389 12.6223 15.3389 12.8984V14.7245C15.3389 15.0007 15.115 15.2245 14.8389 15.2245C14.5627 15.2245 14.3389 15.0007 14.3389 14.7245V12.8984C14.3389 12.6223 14.5627 12.3984 14.8389 12.3984Z" fill="white"/>
<path fill-rule="evenodd" clip-rule="evenodd" d="M7.53455 11.79C7.81069 11.79 8.03455 12.0139 8.03455 12.29V14.7248C8.03455 15.001 7.81069 15.2248 7.53455 15.2248C7.2584 15.2248 7.03455 15.001 7.03455 14.7248V12.29C7.03455 12.0139 7.2584 11.79 7.53455 11.79Z" fill="white"/>
<path fill-rule="evenodd" clip-rule="evenodd" d="M11.1868 13.0073C11.4629 13.0073 11.6868 13.2312 11.6868 13.5073V14.7247C11.6868 15.0009 11.4629 15.2247 11.1868 15.2247C10.9106 15.2247 10.6868 15.0009 10.6868 14.7247V13.5073C10.6868 13.2312 10.9106 13.0073 11.1868 13.0073Z" fill="white"/>
<path fill-rule="evenodd" clip-rule="evenodd" d="M14.8389 9.78125C15.115 9.78125 15.3389 10.0051 15.3389 10.2812V11.1334C15.3389 11.4096 15.115 11.6334 14.8389 11.6334C14.5627 11.6334 14.3389 11.4096 14.3389 11.1334V10.2812C14.3389 10.0051 14.5627 9.78125 14.8389 9.78125Z" fill="white"/>
<path fill-rule="evenodd" clip-rule="evenodd" d="M2.66504 6.92041C2.94118 6.92041 3.16504 7.14427 3.16504 7.42041V8.6378C3.16504 8.91394 2.94118 9.1378 2.66504 9.1378C2.3889 9.1378 2.16504 8.91394 2.16504 8.6378V7.42041C2.16504 7.14427 2.3889 6.92041 2.66504 6.92041Z" fill="white"/>
<path fill-rule="evenodd" clip-rule="evenodd" d="M4.49109 6.92041C4.76723 6.92041 4.99109 7.14427 4.99109 7.42041V8.02911C4.99109 8.30525 4.76723 8.52911 4.49109 8.52911C4.21495 8.52911 3.99109 8.30525 3.99109 8.02911V7.42041C3.99109 7.14427 4.21495 6.92041 4.49109 6.92041Z" fill="white"/>
<path fill-rule="evenodd" clip-rule="evenodd" d="M10.6868 7.42041C10.6868 7.14427 10.9106 6.92041 11.1868 6.92041H13.3781C13.6542 6.92041 13.8781 7.14427 13.8781 7.42041V8.6378C13.8781 8.91394 13.6542 9.1378 13.3781 9.1378C13.1019 9.1378 12.8781 8.91394 12.8781 8.6378V7.92041H11.1868C10.9106 7.92041 10.6868 7.69655 10.6868 7.42041Z" fill="white"/>
<path fill-rule="evenodd" clip-rule="evenodd" d="M9.46936 10.4639C9.46936 10.1877 9.69322 9.96387 9.96936 9.96387H12.4041C12.6803 9.96387 12.9041 10.1877 12.9041 10.4639V11.3769C12.9041 11.6531 12.6803 11.8769 12.4041 11.8769C12.128 11.8769 11.9041 11.6531 11.9041 11.3769V10.9639H9.96936C9.69322 10.9639 9.46936 10.74 9.46936 10.4639Z" fill="white"/>
<path fill-rule="evenodd" clip-rule="evenodd" d="M12.8781 8.6377C12.8781 8.36155 13.1019 8.1377 13.3781 8.1377H14.8389C15.1151 8.1377 15.3389 8.36155 15.3389 8.6377C15.3389 8.91384 15.1151 9.1377 14.8389 9.1377H13.3781C13.1019 9.1377 12.8781 8.91384 12.8781 8.6377Z" fill="white"/>
<path fill-rule="evenodd" clip-rule="evenodd" d="M12.5128 14.7246C12.5128 14.4485 12.7367 14.2246 13.0128 14.2246H14.8389C15.115 14.2246 15.3389 14.4485 15.3389 14.7246C15.3389 15.0008 15.115 15.2246 14.8389 15.2246H13.0128C12.7367 15.2246 12.5128 15.0008 12.5128 14.7246Z" fill="white"/>
<path fill-rule="evenodd" clip-rule="evenodd" d="M10.6868 2.00016C10.6868 1.35583 11.2091 0.833496 11.8534 0.833496H14.1723C14.8166 0.833496 15.3389 1.35583 15.3389 2.00016V4.319C15.3389 4.96334 14.8166 5.48567 14.1723 5.48567H11.8534C11.2091 5.48567 10.6868 4.96334 10.6868 4.319V2.00016ZM11.8534 1.8335C11.7614 1.8335 11.6868 1.90812 11.6868 2.00016V4.319C11.6868 4.41105 11.7614 4.48567 11.8534 4.48567H14.1723C14.2643 4.48567 14.3389 4.41105 14.3389 4.319V2.00016C14.3389 1.90812 14.2643 1.8335 14.1723 1.8335H11.8534Z" fill="white"/>
<path fill-rule="evenodd" clip-rule="evenodd" d="M0.947632 2.00016C0.947632 1.35583 1.46997 0.833496 2.1143 0.833496H4.43314C5.07747 0.833496 5.59981 1.35583 5.59981 2.00016V4.319C5.59981 4.96334 5.07747 5.48567 4.43314 5.48567H2.1143C1.46997 5.48567 0.947632 4.96334 0.947632 4.319V2.00016ZM2.1143 1.8335C2.02225 1.8335 1.94763 1.90812 1.94763 2.00016V4.319C1.94763 4.41105 2.02225 4.48567 2.1143 4.48567H4.43314C4.52519 4.48567 4.59981 4.41105 4.59981 4.319V2.00016C4.59981 1.90812 4.52519 1.8335 4.43314 1.8335H2.1143Z" fill="white"/>
<path fill-rule="evenodd" clip-rule="evenodd" d="M0.947632 11.7389C0.947632 11.0946 1.46997 10.5723 2.1143 10.5723H4.43314C5.07747 10.5723 5.59981 11.0946 5.59981 11.7389V14.0578C5.59981 14.7021 5.07747 15.2244 4.43314 15.2244H2.1143C1.46997 15.2244 0.947632 14.7021 0.947632 14.0578V11.7389ZM2.1143 11.5723C2.02225 11.5723 1.94763 11.6469 1.94763 11.7389V14.0578C1.94763 14.1498 2.02225 14.2244 2.1143 14.2244H4.43314C4.52519 14.2244 4.59981 14.1498 4.59981 14.0578V11.7389C4.59981 11.6469 4.52519 11.5723 4.43314 11.5723H2.1143Z" fill="white"/>
</svg>
