<svg xmlns="http://www.w3.org/2000/svg" version="1.1" width="146" height="30"><polyline points=" 0,0 0.9668874172185431,0.7911354849825827 1.9337748344370862,0.4361510988909849 2.9006622516556293,3.4168171581199687 3.8675496688741724,7.720144700328621 4.8344370860927155,13.098689659419389 5.801324503311259,13.551632956035803 6.768211920529802,16.313001438194913 7.735099337748345,15.223946853701547 8.701986754966889,16.44710538866428 9.668874172185431,17.951780911362615 10.635761589403973,14.935824482833809 11.602649006622517,16.830153084251265 12.569536423841061,19.771037635226058 13.536423841059603,19.06146424207263 14.503311258278146,22.801637728100832 15.47019867549669,27.53994889825182 16.437086092715234,23.11413233922055 17.403973509933778,23.733528718525264 18.370860927152318,23.278743907574214 19.337748344370862,25.101174774436803 20.304635761589406,21.73561887682711 21.271523178807946,16.24609113821881 22.23841059602649,18.762709842205126 23.205298013245034,19.217887561980845 24.17218543046358,18.356352259343737 25.139072847682122,17.92432476465269 26.105960264900663,19.336301013296133 27.072847682119207,17.53587121609401 28.03973509933775,17.601584440482064 29.00662251655629,17.021070998408206 29.973509933774835,18.28293811916066 30.94039735099338,17.551738559426482 31.907284768211923,14.522606148990407 32.87417218543047,16.274570653067137 33.84105960264901,14.893953930893252 34.807947019867555,15.440906478578718 35.77483443708609,16.712240382682662 36.741721854304636,17.341515129082325 37.70860927152318,17.42877925712037 38.675496688741724,17.670647531934 39.64238410596027,17.255383936232626 40.60927152317881,16.63559251519657 41.576158940397356,17.713974906669606 42.54304635761589,19.51874659531083 43.50993377483444,20.78512809634173 44.47682119205298,24.727531343830663 45.443708609271525,25.80624331161256 46.41059602649007,26.62786538597387 47.37748344370861,26.49630181302973 48.34437086092716,26.29161760717711 49.3112582781457,27.12047766806396 50.278145695364245,25.960946606919144 51.24503311258278,26.276794499336884 52.211920529801326,29.072797181288966 53.17880794701987,30 54.145695364238414,29.20693222419881 55.11258278145696,27.946693744569302 56.0794701986755,26.543964436647933 57.046357615894046,25.337446592290746 58.01324503311258,25.719670217140717 58.980132450331126,25.4157049753409 59.94701986754967,23.952951800855132 60.913907284768214,27.401758828394783 61.88079470198676,26.716246157566015 62.8476821192053,25.63470476012425 63.814569536423846,24.343544202121898 64.78145695364239,24.388490753597093 65.74834437086093,16.587348816671597 66.71523178807948,11.633039598588073 67.68211920529802,11.487623506193486 68.64900662251657,8.623597948978368 69.61589403973511,8.393100360238137 70.58278145695364,9.541358822048306 71.54966887417218,10.282425991757094 72.51655629139073,11.496425949223745 73.48344370860927,11.053491590852289 74.45033112582782,13.667813869488768 75.41721854304636,13.485443589123925 76.3841059602649,13.267722028592992 77.35099337748345,13.456219633866347 78.31788079470199,14.979848984904393 79.28476821192054,15.417674071959134 80.25165562913908,14.83558414693699 81.21854304635762,15.695192824588116 82.18543046357617,14.750769782159233 83.15231788079471,17.534982922092183 84.11920529801326,17.394291035264214 85.08609271523179,23.050323974776596 86.05298013245033,23.3508216977029 87.01986754966887,22.011846359724977 87.98675496688742,22.004472805347795 88.95364238410596,21.32110302139121 89.9205298013245,20.748872196179928 90.88741721854305,21.019748702903893 91.8543046357616,20.589165100454363 92.82119205298014,21.83061229581622 93.78807947019868,19.885962818966316 94.75496688741723,19.164184182722426 95.72185430463577,18.02795940704742 96.68874172185431,18.278280396351843 97.65562913907286,18.995750814929032 98.6225165562914,18.610442239182362 99.58940397350995,18.973275702139887 100.55629139072849,16.837328978884074 101.52317880794702,17.603382155611435 102.49006622516556,18.397489064734753 103.45695364238411,18.517299764755855 104.42384105960265,19.33805841468802 105.3907284768212,18.226452050726948 106.35761589403974,17.281376128852116 107.32450331125828,15.791369500048326 108.29139072847683,18.02165700696883 109.25827814569537,17.675045944048573 110.22516556291392,17.206948137813058 111.19205298013246,17.20102013068408 112.158940397351,17.756359160057265 113.12582781456955,17.795755603753918 114.09271523178809,18.359910081700864 115.05960264900664,18.594017960658284 116.02649006622516,18.649267377479458 116.99337748344371,17.464742316024456 117.96026490066225,17.434115473061716 118.9271523178808,16.770698818427825 119.89403973509934,14.251555778938224 120.86092715231788,15.246619746934744 121.82781456953643,15.080193956566843 122.79470198675497,15.131568467795734 123.76158940397352,14.343702685849347 124.72847682119206,11.212333739766795 125.6953642384106,9.906657168821823 126.66225165562915,10.043761690090847 127.62913907284769,12.065931671465403 128.59602649006624,11.136949142182463 129.56291390728478,11.234159780389753 130.52980132450332,10.484385616674949 131.49668874172187,10.19141246053021 132.4635761589404,10.120699086172852 133.43046357615896,10.796016182552222 134.3973509933775,10.94724194526708 135.36423841059604,13.059303716351543 136.3311258278146,12.268948395041932 137.29801324503313,13.030925978223674 138.26490066225168,13.999271689280864 139.23178807947022,13.063252870967087 140.19867549668874,13.571892147791555 141.16556291390728,12.817705933821092 142.13245033112582,12.259391091334571 143.09933774834437,13.260774113862514 144.0662251655629,14.137452596805183 145.03311258278146,14.069283987246271" stroke="#e64b60" stroke-linecap="round" stroke-width="1.4" fill="none" class=""></polyline></svg>